<?xml version="1.0" encoding="utf-8"?>
<!-- Generator: Adobe Illustrator 24.0.0, SVG Export Plug-In . SVG Version: 6.00 Build 0)  -->
<svg version="1.1" id="Layer_1" xmlns="http://www.w3.org/2000/svg" xmlns:xlink="http://www.w3.org/1999/xlink" x="0px" y="0px"
	 viewBox="0 0 64 64" style="enable-background:new 0 0 64 64;" xml:space="preserve">
<style type="text/css">
	.st0{fill:url(#SVGID_1_);}
	.st1{fill:url(#SVGID_2_);}
	.st2{fill:url(#SVGID_3_);}
	.st3{fill:url(#SVGID_4_);}
	.st4{fill:url(#SVGID_5_);}
	.st5{fill:url(#SVGID_6_);}
</style>
<g transform="matrix(.125041 0 0 .125041 0 .844399)">
	
		<linearGradient id="SVGID_1_" gradientUnits="userSpaceOnUse" x1="6239.4951" y1="-5192.5991" x2="6352.4194" y2="-5311.5215" gradientTransform="matrix(0.2501 0 0 -0.2501 -1337.415 -1200.351)">
		<stop  offset="0" style="stop-color:#F9A03C"/>
		<stop  offset="1" style="stop-color:#F7974E"/>
	</linearGradient>
	<path class="st0" d="M443.3,329.1l0.4-4.9c0.1-2-118.3-114.3-118.3-114.3h-2.8C322.5,209.8,442.6,336.4,443.3,329.1L443.3,329.1z"
		/>
	
		<linearGradient id="SVGID_2_" gradientUnits="userSpaceOnUse" x1="5493.6445" y1="-5368.4448" x2="5598.9346" y2="-5471.6494" gradientTransform="matrix(0.2501 0 0 -0.2501 -1337.415 -1200.351)">
		<stop  offset="0" style="stop-color:#F9A03C"/>
		<stop  offset="1" style="stop-color:#F7974E"/>
	</linearGradient>
	<path class="st1" d="M190.6,290.1l-0.5,1l-0.5,1.1c-3.8,7.9,52.9,63.2,57.4,56.5l0.6-0.9l0.7-1C252,341.3,192.2,286.5,190.6,290.1
		L190.6,290.1z"/>
	
		<linearGradient id="SVGID_3_" gradientUnits="userSpaceOnUse" x1="5880.8164" y1="-5658.4858" x2="5976.4175" y2="-5765.1353" gradientTransform="matrix(0.2501 0 0 -0.2501 -1337.415 -1200.351)">
		<stop  offset="0" style="stop-color:#F9A03C"/>
		<stop  offset="1" style="stop-color:#F7974E"/>
	</linearGradient>
	<path class="st2" d="M270.6,368c-0.1,0.4-1.3,2.3-2.3,3.3c-0.2,0.4,55.3,55.4,55.3,55.4h5C328.6,426.6,276.5,370.3,270.6,368z"/>
	
		<linearGradient id="SVGID_4_" gradientUnits="userSpaceOnUse" x1="5809.3315" y1="-5043.0161" x2="5943.0259" y2="-5209.9629" gradientTransform="matrix(0.2501 0 0 -0.2501 -1337.415 -1200.351)">
		<stop  offset="0" style="stop-color:#F26D58"/>
		<stop  offset="1" style="stop-color:#F9A03C"/>
	</linearGradient>
	<path class="st3" d="M443.7,323.1c-2.6,57.5-50.2,103.5-108.3,103.5h-7.9l-58-57.2c4.8-6.7,9.2-13.7,13.2-21h52.7
		c16.7,0,30.2-13.6,30.2-30.2c0-16.7-13.6-30.2-30.2-30.2h-31.2c2.4-12.6,3.7-25.5,3.7-38.8c0-13.5-1.3-26.6-3.8-39.4h19.4
		l119.9,118.1C443.5,326.3,443.6,324.7,443.7,323.1L443.7,323.1z M99.5,71.1H68v78.2h31.5c55.1,0,99.9,44.8,99.9,99.9
		c0,14.5-3.2,28.8-9.3,42l57.5,56.7c19.5-29.2,30-63.5,29.9-98.7C277.6,151,197.7,71.1,99.5,71.1z"/>
	
		<linearGradient id="SVGID_5_" gradientUnits="userSpaceOnUse" x1="6322.6807" y1="-5131.8657" x2="6445.7759" y2="-5219.8369" gradientTransform="matrix(0.2501 0 0 -0.2501 -1337.415 -1200.351)">
		<stop  offset="0" style="stop-color:#B84E51"/>
		<stop  offset="1" style="stop-color:#F68E48"/>
	</linearGradient>
	<path class="st4" d="M335.5,71.1H207.8c31.2,19,57,46,74.6,78.2h53.1c16.7,0,30.2,13.6,30.2,30.2s-13.6,30.2-30.2,30.2h-11.9
		l119.9,118.1c0.3-3.2,0.5-6.4,0.5-9.7c0-26.4-9.5-50.5-25.2-69.3c15.7-18.8,25.2-43,25.2-69.3C443.9,119.8,395.2,71.1,335.5,71.1z"
		/>
	
		<linearGradient id="SVGID_6_" gradientUnits="userSpaceOnUse" x1="6107.5161" y1="-6091.6865" x2="6113.873" y2="-6175.9893" gradientTransform="matrix(0.2501 0 0 -0.2501 -1337.415 -1200.351)">
		<stop  offset="0" style="stop-color:#F9A03C"/>
		<stop  offset="1" style="stop-color:#F7974E"/>
	</linearGradient>
	<path class="st5" d="M327.6,426.6H208.7c23.9-14.8,44.6-34.3,60.9-57.2L327.6,426.6z M247.6,347.8l-57.5-56.7
		c-15.9,34.1-50.5,57.9-90.6,57.9H68v78.2h31.5C161.2,427.2,215.7,395.6,247.6,347.8L247.6,347.8z"/>
</g>
</svg>
